<svg id="Layer_1" data-name="Layer 1" xmlns="http://www.w3.org/2000/svg" viewBox="0 0 139.16 47.12"><defs><style>.cls-1{fill:#1db57a;}.cls-2{fill:#f6f7f0;}.cls-3{fill:#f8fbf3;}.cls-4{fill:#f6faf2;}.cls-5{fill:#f7fbf7;}.cls-6{fill:#f8fbf5;}.cls-7{fill:#f6faf5;}.cls-8{fill:#f6faf6;}.cls-9{fill:#123b39;}.cls-10{fill:#0c3634;}.cls-11{fill:#0f3633;}.cls-12{fill:#0d4a44;}.cls-13{fill:#26b67d;}.cls-14{fill:#113c39;}.cls-15{fill:#f7f8f1;}.cls-16{fill:#80c8a3;}.cls-17{fill:#f7f8ef;}.cls-18{fill:#143a34;}.cls-19{fill:#ccbfae;}.cls-20{fill:#f5f7f5;}.cls-21{fill:#7bc9a5;}.cls-22{fill:#f8faf7;}.cls-23{fill:#f7f7f5;}.cls-24{fill:#f9f9f8;}.cls-25{fill:#f8f9f5;}.cls-26{fill:#87cba9;}.cls-27{fill:#f8f8f3;}.cls-28{fill:#f9fcfd;}.cls-29{fill:#fafdf9;}.cls-30{fill:#f7faf9;}.cls-31{fill:#f8faf6;}.cls-32{fill:#f6f8f9;}.cls-33{fill:#d1e6d5;}.cls-34{fill:#9eb6a9;}.cls-35{fill:#a4cac5;}.cls-36{fill:#d2e3dc;}.cls-37{fill:#3c6355;}.cls-38{fill:#4b6e60;}.cls-39{fill:#abd5c9;}.cls-40{fill:#3c8672;}.cls-41{fill:#99c3b3;}.cls-42{fill:#133c39;}.cls-43{fill:#143f38;}.cls-44{fill:#103c36;}.cls-45{fill:#c9bbaa;}.cls-46{fill:#adc4bc;}.cls-47{fill:#133c37;}.cls-48{fill:#638781;}.cls-49{fill:#c2882b;}.cls-50{fill:#fdc033;}.cls-51{fill:#0f362f;}.cls-52{fill:#fff;}</style></defs><rect class="cls-1" x="21.84" y="0.06" width="93.15" height="47.06"/><ellipse class="cls-1" cx="22.99" cy="23.56" rx="22.99" ry="23.56"/><ellipse class="cls-1" cx="114.99" cy="23.59" rx="24.16" ry="23.53"/><ellipse class="cls-1" cx="23" cy="23.97" rx="20.68" ry="20.14"/><path class="cls-2" d="M39.28,39.23c-.55.6-.71.66-1.28,1.24a14,14,0,0,1-4.3,3.18.52.52,0,0,0-.38.64c.18,1.6-.76,2.59-2.2,3.19a17.31,17.31,0,0,1-5.93,1.27,16.63,16.63,0,0,1-3.86-.15A14.26,14.26,0,0,1,16.38,47,2.68,2.68,0,0,1,15,44.43a.73.73,0,0,0-.45-.79,19,19,0,0,1-3.33-2.38c-.16-.14-.34-.26-.51-.39-.19,0-.26-.11-.36-.22-.3-.25-.54-.57-.81-.84a3.68,3.68,0,0,1-.75-1,14,14,0,0,1-2.56-5.4,11.86,11.86,0,0,1,0-6.31,7.34,7.34,0,0,1,1.32-2.32.27.27,0,0,1,.2-.22,1.77,1.77,0,0,0,.41-.41h0L9.55,23c0-.17.17-.23.29-.31a19.75,19.75,0,0,1,7.71-3h0c.61,0,1.07-.17,1.23-.92a4.12,4.12,0,0,1,.94-1.59.7.7,0,0,0,.13-.74.94.94,0,0,1-.09-.77,3.06,3.06,0,0,1-.37-1.2,1.32,1.32,0,0,1,2.47-.55,4.21,4.21,0,0,0,.43.61c.14,0,.12-.16.14-.23.16-.66.52-1.06,1-1.11a1.3,1.3,0,0,1,1.49.88,2.07,2.07,0,0,1,.15.5.89.89,0,0,0,.23.49c.2.19.35.39,0,.6a.12.12,0,0,0,0,.16c.06.08.12,0,.17,0a.67.67,0,0,0,.19-.14.64.64,0,0,1,.76-.38,1.19,1.19,0,0,1,.82.4s.07.05.1.08c.21,0,.31.12.41.26a2.4,2.4,0,0,1,.29,2,4.46,4.46,0,0,1-.46,1.15,3.48,3.48,0,0,0,.69.1A25.14,25.14,0,0,1,35.36,21a14.62,14.62,0,0,1,4.88,3.15,7.37,7.37,0,0,1,2.22,4.27,10,10,0,0,1,.08,1.89,16.46,16.46,0,0,1-.14,2.1A15,15,0,0,1,40,38.29,3.49,3.49,0,0,1,39.28,39.23Z" transform="translate(-0.92 -10.87)"/><path class="cls-3" d="M11.13,46.24H10a.54.54,0,0,1-.5-.37.48.48,0,0,1,.12-.51.43.43,0,0,1,.37-.14h2.14a.63.63,0,0,1,.61.58c0,.27-.25.43-.63.42h-1Z" transform="translate(-0.92 -10.87)"/><path class="cls-4" d="M39.87,43.48a4,4,0,0,1-.6,0,.56.56,0,0,1-.47-.37c-.08-.2-.15-.39.06-.55l.15-.14h1.71c.55,0,.78.28.69.83a.55.55,0,0,1-.34.24C40.67,43.49,40.27,43.41,39.87,43.48Z" transform="translate(-0.92 -10.87)"/><path class="cls-5" d="M37,45.21h.86a.5.5,0,0,1,.54.53c0,.33-.1.42-.51.44l-1.72.05a.57.57,0,0,1-.6-.53.51.51,0,0,1,.57-.51H37Z" transform="translate(-0.92 -10.87)"/><path class="cls-6" d="M7.66,42.52l.15-.15H9.6c.4,0,.57.17.59.52s-.13.53-.54.54-1.1,0-1.65,0a.49.49,0,0,1-.41-.73A1.34,1.34,0,0,0,7.66,42.52Z" transform="translate(-0.92 -10.87)"/><path class="cls-7" d="M5.81,40.18A.46.46,0,0,1,5.48,40c-.13-.19-.23-.37-.1-.6A.56.56,0,0,1,6,39.13c.45,0,.91,0,1.37,0a.81.81,0,0,1,.48.16c.24.48.2.64-.21.85A17.81,17.81,0,0,1,5.81,40.18Z" transform="translate(-0.92 -10.87)"/><path class="cls-8" d="M40.67,39.48a.79.79,0,0,1,.76-.37c.45,0,.92,0,1.37,0l.29.33c0,.41-.15.63-.56.65s-.94,0-1.41,0c-.14,0-.2-.09-.3-.14S40.62,39.68,40.67,39.48Z" transform="translate(-0.92 -10.87)"/><path class="cls-9" d="M20.69,17.76a2,2,0,0,0-.17-2.5.69.69,0,0,1-.21-.72c.2-.44.65-.47,1-.06a3.15,3.15,0,0,1,.46,3.8,3.63,3.63,0,0,0-.47,1.57c0,.17,0,.36.23.37s.43,0,.41-.3c0,0,0,0,0-.05s.1.06.14.11.13,0,.19,0,.19-.1.24.06a3.09,3.09,0,0,0,.78,2.45,2.28,2.28,0,0,1-.13,2.94.62.62,0,0,1-.31.2c-.2.06-.38.15-.4.38a.55.55,0,0,0,.33.49.74.74,0,0,0,.22.1.86.86,0,0,0,.23.06c.35,0,.71,0,1.09,0a1.2,1.2,0,0,0-.51-.36c-.15-.06-.33-.12-.31-.35a.88.88,0,0,1,.24-.33,2.67,2.67,0,0,0,.65-2.18,2,2,0,0,0-.3-.73c-.2-.35-.44-.68-.65-1A2.54,2.54,0,0,1,23,19.82a.47.47,0,0,1,.15-.34s.1,0,.12,0,.18.21.36.12.09,0,.06.11-.25.3.06.4.56.05.62-.21a4.32,4.32,0,0,1,1-1.76,1.79,1.79,0,0,0,.53-1.48c0-.16.06-.25.2-.31a.68.68,0,0,1,1,.58,2.73,2.73,0,0,1-.44,1.78,3.39,3.39,0,0,0-.48,1.16c-.05.27,0,.36.29.37a24.89,24.89,0,0,1,7.29,1.38,15.64,15.64,0,0,1,5.44,3.05,6.19,6.19,0,0,1,2.22,4.73A13.73,13.73,0,0,1,39.7,36.7a15,15,0,0,1-5.13,5.41,17.11,17.11,0,0,1-2.13,1.2c-.13,0-.13.13-.13.24,0,.33,0,.67,0,1a1.64,1.64,0,0,1-.8,1.51,8,8,0,0,1-2.38,1,19.36,19.36,0,0,1-8.19.39A10.69,10.69,0,0,1,16.72,46,1.46,1.46,0,0,1,16,44.62a2.51,2.51,0,0,0,0-1.13c-.14-.31-.61-.41-.93-.61A24.53,24.53,0,0,1,11.12,40,13.29,13.29,0,0,1,7,32.34a11.67,11.67,0,0,1,0-4.29,5,5,0,0,1,1.09-2.28c.48-.25.67-.15.77.4a1.28,1.28,0,0,1,.05.27,7,7,0,0,1-.38.89,2.53,2.53,0,0,0,0,2,3.4,3.4,0,0,0,.76.92,2.66,2.66,0,0,0,.67.53c-.18-.19-.31-.42-.48-.61a5.15,5.15,0,0,1-.46-1,.7.7,0,0,1,0-.63c.19-.09.23.07.28.19s.07.34.18.47.13-.11.17-.17a8.46,8.46,0,0,1,3.81-3.58,19.38,19.38,0,0,1,3-1.22,2.15,2.15,0,0,1,.61-.13.74.74,0,0,0,.46-.07.45.45,0,0,1,.62.26.46.46,0,0,1-.34.58.94.94,0,0,0-.38.27,3.22,3.22,0,0,1-.86.34,13.05,13.05,0,0,0-3.72,1.84,8.67,8.67,0,0,0,1.09-.27c.37-.13.72-.29,1.09-.44a20.33,20.33,0,0,1,3.13-1.18,15.9,15.9,0,0,1,1.81-.2.43.43,0,0,1,.27.06.49.49,0,0,1,.2.32.43.43,0,0,0,.29.42.52.52,0,0,0,.54-.17,2.69,2.69,0,0,0,.41-3.33c-.08-.11-.15-.23-.24-.34a3.46,3.46,0,0,1-.75-2.87c0-.16.09-.32-.08-.45a.79.79,0,0,1,0-.86C20.62,18,20.7,17.87,20.69,17.76Z" transform="translate(-0.92 -10.87)"/><path class="cls-10" d="M8.84,26.4c-.16-.1-.06-.27-.13-.4s-.19-.45-.48-.2a.1.1,0,0,1-.15,0,9.69,9.69,0,0,1,2.47-2.18A19.75,19.75,0,0,1,17,20.94l2.26-.49c.12,0,.2-.06.21-.21a4.84,4.84,0,0,1,1.19-2.48c.07.25-.21.44-.13.73a2.06,2.06,0,0,1,.05.38c.06.15,0,.27-.09.39a3.08,3.08,0,0,0,.12,2.83c.18.33.39.65.55,1a2.06,2.06,0,0,1-.68,2.5.33.33,0,0,1-.19.06l-.14-.3c-.05-.16.17-.31.07-.42s-.35-.07-.52-.05a16.3,16.3,0,0,0-2,.24.44.44,0,0,1-.4,0c0-.22.21-.22.35-.28s.4-.21.3-.48-.3-.24-.51-.17-.31.16-.49,0c.08-.19.26-.2.42-.25A24.93,24.93,0,0,1,20,23.37a1.67,1.67,0,0,0,.41-.11c-.19-.32-.44-.58-.63-.88a.75.75,0,0,1-.09-.15c-.19-.57-.58-.56-1.08-.46a23.58,23.58,0,0,0-5.52,1.72,15,15,0,0,0-4,2.72C9,26.29,9,26.4,8.84,26.4Z" transform="translate(-0.92 -10.87)"/><path class="cls-11" d="M22.06,20,22,19.87a3.28,3.28,0,0,1,.83-1.71c.2-.25.41-.49.62-.73a1.6,1.6,0,0,0,.14-2,1.92,1.92,0,0,1-.27-.51.51.51,0,0,1,.21-.64.52.52,0,0,1,.63.11A2.5,2.5,0,0,1,25,16.62a2.71,2.71,0,0,1-.4,1.27c-.21-.06-.1-.22-.1-.34,0-.35-.11-.41-.41-.24a.94.94,0,0,0-.34.29,13.63,13.63,0,0,0-1.2,1.79A1.67,1.67,0,0,1,22.06,20Z" transform="translate(-0.92 -10.87)"/><path class="cls-12" d="M22.06,20c.05-.41.38-.66.51-1,.23-.61.79-1,1.09-1.57a.91.91,0,0,1,.59-.37c.24-.07.37.16.33.53,0,.09-.14.18,0,.28l-.82,1.83,0,0c-.29.25-.46.19-.47-.21-.15-.14-.11-.3,0-.46l.1-.18c0-.09.12-.17.12-.28s-.13.11-.18.19a1.4,1.4,0,0,1-.09.17,5.15,5.15,0,0,0-.43.8c0,.11-.08.25-.24.26s-.11,0-.13.07,0,.21-.12.21S22.08,20.14,22.06,20Z" transform="translate(-0.92 -10.87)"/><path class="cls-13" d="M10.42,40.58a1.16,1.16,0,0,1-.81-.82Z" transform="translate(-0.92 -10.87)"/><path class="cls-13" d="M38.86,42.52a1.13,1.13,0,0,0-.06.55" transform="translate(-0.92 -10.87)"/><path class="cls-14" d="M11,53.94" transform="translate(-0.92 -10.87)"/><path class="cls-13" d="M5.81,40.18H7.6A6,6,0,0,1,5.81,40.18Z" transform="translate(-0.92 -10.87)"/><path class="cls-15" d="M20.88,43.91a10.51,10.51,0,0,1-2.76-.73,16.85,16.85,0,0,1-7.9-6A11.5,11.5,0,0,1,8,31.08c0-.14,0-.27,0-.44A7.77,7.77,0,0,0,11.3,33a25,25,0,0,0,5.54,1.89,38,38,0,0,0,9.52.71,36.58,36.58,0,0,0,6.42-.87c.12.14.13.16,0,.39a7.87,7.87,0,0,1-1,1.59,3.5,3.5,0,0,1-1,1,2.4,2.4,0,0,1-1.06.09c-1.31-.12-2.62,0-3.93,0a.51.51,0,0,0-.56.44c0,.21.23.37.54.38,1,0,2.05.11,3.07.08a.74.74,0,0,1,.56.11.39.39,0,0,1,0,.43A4.29,4.29,0,0,1,28,41c-.34.24-.67.5-1,.76a9,9,0,0,1-3.18,1.68c-.22.07-.45.13-.66.22A4.28,4.28,0,0,1,20.88,43.91Z" transform="translate(-0.92 -10.87)"/><path class="cls-16" d="M20.88,43.91a10.17,10.17,0,0,0,5.29-1.69,21.27,21.27,0,0,0,2.16-1.65,3.84,3.84,0,0,0,1.08-1.66.59.59,0,0,1,.48-.12h2c.36,0,.71-.06,1.07-.09a.5.5,0,0,0,.43-.59c0-.22-.17-.3-.38-.3h-1.8c-.13,0-.31.07-.37-.14a11,11,0,0,0,1.79-2.44.67.67,0,0,0,.15-.47c1-.36,2-.61,3-1A19.94,19.94,0,0,0,39,32,4.15,4.15,0,0,0,40,31a1.14,1.14,0,0,1,.35-.38,8.44,8.44,0,0,1-.21,1.61,15.11,15.11,0,0,1-1.52,4.2,14.62,14.62,0,0,1-5,5,19.88,19.88,0,0,1-4.76,2.17,16.4,16.4,0,0,1-6.12.54C22.12,44.14,21.5,44,20.88,43.91Z" transform="translate(-0.92 -10.87)"/><path class="cls-17" d="M27.17,22.18a4.32,4.32,0,0,0-.56-.83,1.78,1.78,0,0,1,.86,0,34.21,34.21,0,0,1,4.5.81,16.69,16.69,0,0,1,6.35,3.15,4.92,4.92,0,0,1,1.76,2.57,2.62,2.62,0,0,1-1.56,2.86c-.12,0-.26.1-.32-.1s.12-.24.21-.35a4.41,4.41,0,0,0,.8-1.57,1.75,1.75,0,0,1-.18.48c-.14.22-.26.22-.42,0a2.25,2.25,0,0,1-.12-.21,9.9,9.9,0,0,0-2.14-2.59,3.76,3.76,0,0,0-1.63-.88,2.62,2.62,0,0,1-1-.54,5.23,5.23,0,0,0-3.36-1.25c-.91,0-1.82-.16-2.74-.2-.11,0-.25,0-.23-.18A2.91,2.91,0,0,0,27.17,22.18Z" transform="translate(-0.92 -10.87)"/><path class="cls-18" d="M27.17,22.18a1.47,1.47,0,0,1,.29,1c0,.19.05.26.27.29,1.07.19,2.17.1,3.25.21a5,5,0,0,1,2.81,1.19,2,2,0,0,0,.78.49,5.51,5.51,0,0,1,2.82,1.94,6.66,6.66,0,0,1,1.4,2.1c.24-.33.31-.66.49-.94a3.08,3.08,0,0,1-1,2.16c-.16.15-.25,0-.33-.09s-.07-.24-.15-.35-.17-.47-.3-.69c0,0,0,0,0,0A3.22,3.22,0,0,1,35,32.23a10.15,10.15,0,0,1-1.89.43c-.19,0-.37.09-.56.08a12.68,12.68,0,0,0-1.5-.25c-.28,0-.3-.12-.15-.35s.15-.46-.2-.58a3.57,3.57,0,0,1-.84-.39,1,1,0,0,0-.64-.16c-.1,0-.23,0-.25.13a.27.27,0,0,0,.15.32,1.23,1.23,0,0,1,.47.35.12.12,0,0,1,0,.15,1.5,1.5,0,0,1-1.45-.56c.11-.16.19-.33.29-.49s.05-.42-.16-.58-.49-.21-.49-.54a.91.91,0,0,1,.49.24,4.46,4.46,0,0,0,2,.68c.26,0,.37,0,.41-.31a2.66,2.66,0,0,1,.5-1.17A.58.58,0,0,1,32,29a.09.09,0,0,1-.07.13.15.15,0,0,1-.13,0c.25.16.12.51.24.77a2.16,2.16,0,0,1-.06.51c0,.5.22.78.72.76a4.45,4.45,0,0,0,2.57-.78A2,2,0,0,0,36,28.5a2.61,2.61,0,0,0-.22-.83,1.31,1.31,0,0,0-.6-.65c-.27-.15-.32-.13-.36.18a5,5,0,0,1-.26.94.45.45,0,0,1-.22.29.61.61,0,0,1-.66-.41,3.84,3.84,0,0,0-.35-1.7,2.09,2.09,0,0,0-1.19-1.09,4.57,4.57,0,0,0-2.45-.35c-.15,0-.3.07-.43-.06,0-.31.3-.14.42-.28-.16-.16-.29-.31-.09-.57s-.1-.27-.26-.26c-.51,0-1-.11-1.51-.08-.32,0-.47-.09-.45-.43a1.89,1.89,0,0,0-.18-.77C27.17,22.35,27.08,22.28,27.17,22.18Z" transform="translate(-0.92 -10.87)"/><path class="cls-19" d="M29.27,24.82a4.74,4.74,0,0,1,2.88.27c1.27.58,1.48,1.27,1.65,2.59a1,1,0,0,1-.07.37.3.3,0,0,1-.1.31,2.47,2.47,0,0,1-1.43.75A.26.26,0,0,1,32,29a.65.65,0,0,0-.76.39,2.8,2.8,0,0,0-.43,1.19c0,.13,0,.26-.21.24a4.43,4.43,0,0,1-2.77-1.07c-.14-.17-.29-.33-.42-.5a2.8,2.8,0,0,1,1.24-4.21C28.82,25,29.05,24.91,29.27,24.82Z" transform="translate(-0.92 -10.87)"/><path class="cls-20" d="M33.13,32.56l1.55-.34a4.32,4.32,0,0,0,1.59-.79c.76-.56,1-1,1.1-2.34a5.39,5.39,0,0,1,.52,1.05c.18.43,0,.71-.36.95a8.72,8.72,0,0,1-4,2.14c-.72.21-1.39.55-2.13.71a11.36,11.36,0,0,1-2.67.19c-3.06-.08-6.11-.1-9.16,0A13.44,13.44,0,0,1,16,33.56l-.83-.25a.86.86,0,0,1,.53-.13h6.5a.39.39,0,0,1,.31-.12l3,0c1.77,0,3.54.07,5.31,0A8.57,8.57,0,0,1,31.92,33a2.13,2.13,0,0,0,.44,0c.14,0,.27,0,.32-.22S33,32.63,33.13,32.56Z" transform="translate(-0.92 -10.87)"/><path class="cls-21" d="M19.85,22.32l.71.87c.17.22,0,.2-.14.22l-2.16.43A7.76,7.76,0,0,0,17,24.2a14.52,14.52,0,0,0-5.59,2.73A6.42,6.42,0,0,0,9.6,29.27c0,.08-.06.18-.14.19s-.13-.12-.17-.19-.1-.52-.29-.72-.12-.31-.09-.47a3.68,3.68,0,0,1,1.44-2.25,18.09,18.09,0,0,1,7.75-3.37l1.22-.22A.59.59,0,0,1,19.85,22.32Z" transform="translate(-0.92 -10.87)"/><path class="cls-22" d="M20.19,28.67H15.38a8.39,8.39,0,0,0-3.82,1l-.84.41a.29.29,0,0,1-.35-.06c-.11-.13,0-.22.07-.3a4.48,4.48,0,0,1,2.28-1.54,8.73,8.73,0,0,1,3.08-.5h9.68c.23,0,.29.06.25.27a1.48,1.48,0,0,1,0,.21c0,.16.13.37,0,.46s-.34,0-.51,0h-5Z" transform="translate(-0.92 -10.87)"/><path class="cls-23" d="M28.14,31.4a2.6,2.6,0,0,0,1.46.53,1,1,0,0,1,.88.12c.14.08.1.18,0,.25a1,1,0,0,1-.34.05c-.5,0-1,0-1.51,0a1.27,1.27,0,0,0-.34,0c-2.69.07-5.38.05-8.08.05a.47.47,0,0,1-.43-.15c-1.32-.06-2.63-.09-3.94,0a8.51,8.51,0,0,0-1.75.16c-.05,0-.11,0-.14,0-.58.48-1-.11-1.54-.24a5.77,5.77,0,0,1,2.85-.82h5.57c2.35,0,4.7,0,7.05,0A.61.61,0,0,1,28.14,31.4Z" transform="translate(-0.92 -10.87)"/><path class="cls-24" d="M20.33,29.58c1.86,0,3.71,0,5.56,0,.19,0,.33,0,.39.24a.74.74,0,0,0,.33.43c.05,0,.13.07.08.16s-.1,0-.15,0l-3.49,0c-2.44,0-4.89,0-7.33,0a7.51,7.51,0,0,0-4.15,1.16c-.3.19-.43,0-.6-.19s0-.3.12-.4a6.07,6.07,0,0,1,3.16-1.33,27.41,27.41,0,0,1,3.39-.08Z" transform="translate(-0.92 -10.87)"/><path class="cls-25" d="M19.85,22.32a10.52,10.52,0,0,0-2,.32,17.65,17.65,0,0,0-5.74,2.15,10.68,10.68,0,0,0-2.27,1.68A3,3,0,0,0,9,28.55a3.29,3.29,0,0,0,.54,1.6c0,.26-.06.29-.35.19a2.43,2.43,0,0,1-.75-3.11c.13-.28.26-.55.4-.83a5.57,5.57,0,0,1,1.37-1.28,17.41,17.41,0,0,1,6.41-3c.87-.22,1.74-.4,2.63-.57.17,0,.22,0,.28.17A3.55,3.55,0,0,0,19.85,22.32Z" transform="translate(-0.92 -10.87)"/><path class="cls-26" d="M23.93,45.43c1.06-.09,2.13-.07,3.19-.26A13,13,0,0,0,31,44c.2-.11.2,0,.23.15a1.09,1.09,0,0,1-.75,1.28,13.69,13.69,0,0,1-3.95,1.06,17.74,17.74,0,0,1-3.34.07c-.11,0-.22-.1-.1-.21a4.38,4.38,0,0,0,.66-.83C23.77,45.48,23.86,45.47,23.93,45.43Z" transform="translate(-0.92 -10.87)"/><path class="cls-18" d="M19.74,32.27c1.27,0,2.55,0,3.82,0h4.69c.09,0,.21-.08.23,0s-.11.13-.19.15a4.53,4.53,0,0,1-.52,0,18.49,18.49,0,0,1-2.09.21.13.13,0,0,0-.14.08,2.19,2.19,0,0,0,.81,0,1.13,1.13,0,0,1,.8.14.94.94,0,0,0,.5.1c.92,0,1.84-.07,2.76,0,.16,0,.36,0,.43.18-1,.06-2,0-3,0l-5.65,0a.72.72,0,0,0-.41,0H17.34c.42-.42,1,0,1.42-.33-.27-.28-.83.06-1-.51Z" transform="translate(-0.92 -10.87)"/><path class="cls-27" d="M22.48,46.58A12.91,12.91,0,0,1,19,45.94a7.77,7.77,0,0,1-1.46-.61.72.72,0,0,1-.45-.77,4,4,0,0,0,0-.59,18.08,18.08,0,0,0,3.24,1l2.14.39c.12,0,.22.1.34.14a.61.61,0,0,1,.47.59.73.73,0,0,1-.61.47A1.23,1.23,0,0,0,22.48,46.58Z" transform="translate(-0.92 -10.87)"/><path class="cls-28" d="M23.31,19c-.11.15,0,.32-.07.48a2.25,2.25,0,0,0,.24,1.94c.24.4.5.77.74,1.17a2.61,2.61,0,0,1-.62,3.34c-.15.22,0,.36.13.51s.08.29-.16.27a2.51,2.51,0,0,1-.55,0,.9.9,0,0,1-.55-.33.49.49,0,0,1,.27-.83.57.57,0,0,0,.44-.3,2.11,2.11,0,0,0-.06-2.85,2.73,2.73,0,0,1-.64-2.4,4.94,4.94,0,0,1,.61-1.13C23.21,18.82,23.32,18.83,23.31,19Z" transform="translate(-0.92 -10.87)"/><path class="cls-29" d="M25.67,19.29a2.63,2.63,0,0,0,.38,2.41,4.32,4.32,0,0,1,.88,1.89,2.15,2.15,0,0,1-.2,1.41c-.22.4-.46.8-.7,1.19a.58.58,0,0,1-.63.26A.51.51,0,0,1,25,26c-.05-.25-.17-.51.09-.72s.37-.19.54-.3a1.76,1.76,0,0,0,.19-2.22,12.15,12.15,0,0,1-.7-1.15,2,2,0,0,1,.23-2.23,1.75,1.75,0,0,1,.23-.24C25.7,19.07,25.71,19.16,25.67,19.29Z" transform="translate(-0.92 -10.87)"/><path class="cls-30" d="M20.32,25.64a2.93,2.93,0,0,0,.75-.93A1.73,1.73,0,0,0,21,23c-.21-.37-.45-.72-.63-1.11a3.08,3.08,0,0,1,.2-3.05c.14-.09.26-.16.23.11a5.29,5.29,0,0,0-.13,1.19A3.34,3.34,0,0,0,21.42,22a2.91,2.91,0,0,1,.75,1.6,3.14,3.14,0,0,1-1,2.42.54.54,0,0,1-.7.06A.33.33,0,0,1,20.32,25.64Z" transform="translate(-0.92 -10.87)"/><path class="cls-31" d="M17.36,25.09a14.13,14.13,0,0,1,2.9-.37c.09,0,.22-.07.27.05s-.05.17-.1.24a3.59,3.59,0,0,1-.25.33c-.53.11-1.08,0-1.61.14a10.23,10.23,0,0,0-2.57.86,10.45,10.45,0,0,1-3.57,1.15,13.47,13.47,0,0,1,4.78-2.33Z" transform="translate(-0.92 -10.87)"/><path class="cls-32" d="M21.37,26.88a15.82,15.82,0,0,1-2.58.15H17.07a.8.8,0,0,1,.73-.49,11.82,11.82,0,0,1,2.85,0l.3,0c.11.07.23,0,.34,0S21.54,26.74,21.37,26.88Z" transform="translate(-0.92 -10.87)"/><path class="cls-33" d="M22.48,46.58c.1-.1.24,0,.35-.09s.36-.22.37-.43-.17-.37-.35-.47a1.54,1.54,0,0,1-.37-.23,10,10,0,0,0,1.45.07c-.27.34-.42.76-.81,1-.11.06,0,.11,0,.16Z" transform="translate(-0.92 -10.87)"/><path class="cls-34" d="M23,26.69h.73c-.16-.27-.54-.46-.15-.76,0,.1,0,.15.12.17.39,0,.62.37.93.58A5,5,0,0,1,23,26.69Z" transform="translate(-0.92 -10.87)"/><path class="cls-35" d="M21.37,26.88c.05-.1,0-.17-.09-.19s-.23,0-.33-.08a6.79,6.79,0,0,1,1.77.1A5.19,5.19,0,0,1,21.37,26.88Z" transform="translate(-0.92 -10.87)"/><path class="cls-36" d="M9.19,30.34c.15,0,.32,0,.35-.19l.64.82A1.8,1.8,0,0,1,9.19,30.34Z" transform="translate(-0.92 -10.87)"/><path class="cls-37" d="M37.53,31.09a1.17,1.17,0,0,0,.36-.95c.11.07.06.18.1.27s.09.26.28.22c0,.2.17.08.25.13C38.21,30.91,37.82,30.84,37.53,31.09Z" transform="translate(-0.92 -10.87)"/><path class="cls-38" d="M25.58,25c-.11.23-.34.24-.54.3C25.11,25,25.31,24.93,25.58,25Z" transform="translate(-0.92 -10.87)"/><path class="cls-39" d="M25.67,19.29c0-.06,0-.14-.13-.06s-.13.16-.24.18a1.45,1.45,0,0,1,.47-.55A.56.56,0,0,1,25.67,19.29Z" transform="translate(-0.92 -10.87)"/><path class="cls-40" d="M23.16,18.71c.08-.18.26-.44.37-.35s-.06.34-.15.5A.34.34,0,0,1,23.16,18.71Z" transform="translate(-0.92 -10.87)"/><path class="cls-41" d="M23.16,18.71c.17-.09.22,0,.22.15l-.07.14-.22-.15Z" transform="translate(-0.92 -10.87)"/><path class="cls-42" d="M30.84,37.67c.71,0,1.42,0,2.13,0,.48,0,.54,0,.56.47a.58.58,0,0,1-.54.7c-.83.08-1.67,0-2.51,0H29.41a.8.8,0,0,0-.37-.06l-3,0a2.36,2.36,0,0,1-.38,0,.61.61,0,0,1-.56-.56.69.69,0,0,1,.64-.56c1.35,0,2.69,0,4,.06A4.49,4.49,0,0,0,30.84,37.67Z" transform="translate(-0.92 -10.87)"/><path class="cls-43" d="M14.9,37.61a1.41,1.41,0,0,1-.59-.11.8.8,0,0,1-.51-1,.71.71,0,0,1,1.07-.38,1.64,1.64,0,0,1,.5.32.59.59,0,0,1,.16.72C15.41,37.44,15.24,37.67,14.9,37.61Z" transform="translate(-0.92 -10.87)"/><path class="cls-44" d="M11.49,34.84a.6.6,0,0,1,.35.13,2.07,2.07,0,0,1,.63.81.61.61,0,0,1-.21.77.54.54,0,0,1-.73,0,1.84,1.84,0,0,1-.58-.63C10.76,35.47,11.09,34.84,11.49,34.84Z" transform="translate(-0.92 -10.87)"/><path class="cls-45" d="M34.3,28.41A2.84,2.84,0,0,0,34.72,27c0-.25.09-.27.28-.19a1.51,1.51,0,0,1,1,1,3,3,0,0,1,.16,1.39,2.28,2.28,0,0,1-1.57,1.8,6.5,6.5,0,0,1-1.85.39c-.78.06-1-.52-.87-1.07a2,2,0,0,1,.11-.32c0-.15.12-.18.22-.23a5.09,5.09,0,0,1,.54-.22,3.13,3.13,0,0,0,1.36-.9A.35.35,0,0,1,34.3,28.41Z" transform="translate(-0.92 -10.87)"/><path class="cls-9" d="M30.84,33.16a7.47,7.47,0,0,0-1.42-.07l-2.14,0h-.07c-.45-.49-1-.15-1.49-.14a.63.63,0,0,1-.27,0c-.09,0-.2-.08-.18-.21s.11-.13.2-.15a.34.34,0,0,1,.14,0c.94.06,1.85-.28,2.81-.21-.05-.1-.12-.06-.17-.08.73-.11,1.47,0,2.24-.09a3.84,3.84,0,0,0-.89-.25.91.91,0,0,0-.42-.31c-.32-.06-.33-.31-.38-.54s.07-.17.17-.18c.25,0,.61-.1.73,0s.57.2.78.41a.42.42,0,0,0,.36.13c.3,0,.42.16.27.44s.13.45-.27.43a8.44,8.44,0,0,1,1.68.3c0,.11-.08.14-.17.16s-.18.32-.4.32Z" transform="translate(-0.92 -10.87)"/><path class="cls-18" d="M34.3,28.41a1.93,1.93,0,0,1-.95.9l-1.41.62c-.14,0-.13-.15-.12-.25a.68.68,0,0,0-.17-.53c.1-.08.23,0,.3-.11a2.31,2.31,0,0,0,1.78-1A2.87,2.87,0,0,0,34.3,28.41Z" transform="translate(-0.92 -10.87)"/><path class="cls-46" d="M32.3,32.7l.22-.07.61-.07c-.07.1-.19.08-.28.13s-.13,0-.1.11c.2.42-.14.28-.32.31S32.15,32.9,32.3,32.7Z" transform="translate(-0.92 -10.87)"/><path class="cls-47" d="M30.8,27.93a1.66,1.66,0,0,1-1.18-.37.66.66,0,0,1-.06-1,1.74,1.74,0,0,1,2.23-.12.75.75,0,0,1-.18,1.31A1.83,1.83,0,0,1,30.8,27.93Z" transform="translate(-0.92 -10.87)"/><path class="cls-48" d="M32.3,32.7c0,.15,0,.31.13.41H32c.08-.07.15-.13.14-.25S32.17,32.67,32.3,32.7Z" transform="translate(-0.92 -10.87)"/><path class="cls-1" d="M24.37,54.06c-1.64,0-3.29,0-4.9-.08a.64.64,0,0,1-.61-.6c-.11-2.54-.11-4.73,0-6.68a.62.62,0,0,1,.61-.59c1,0,1.92-.06,2.9-.07L21,44.74a.76.76,0,0,1,.12-1.5.76.76,0,0,1,.73.58l2.2,2,1.19-1.31a.76.76,0,0,1,.75-.64.76.76,0,0,1,.75.75.77.77,0,0,1-.57.74l-.58.63c1.25,0,2.5,0,3.72.08a.62.62,0,0,1,.6.59c.1,2,.1,4.14,0,6.68a.63.63,0,0,1-.61.6C27.66,54,26,54.06,24.37,54.06Zm-4.28-1.31c1.42,0,2.86.06,4.28.06s2.85,0,4.27-.06c.06-2,.07-3.79,0-5.41-1.42,0-2.85-.06-4.28-.06s-2.87,0-4.28.06C20,49,20,50.73,20.09,52.75Z" transform="translate(-0.92 -10.87)"/><path class="cls-1" d="M24.37,53.85c-1.64,0-3.28,0-4.89-.08a.42.42,0,0,1-.41-.4,61.39,61.39,0,0,1,0-6.66.41.41,0,0,1,.41-.39c1.12,0,2.27-.06,3.41-.08l-1.84-1.7a.54.54,0,0,1-.52-.54.55.55,0,0,1,1.09-.07L24,46.15l1.37-1.51a.55.55,0,0,1,1.09,0,.53.53,0,0,1-.47.54l-.94,1c1.4,0,2.8,0,4.18.08a.42.42,0,0,1,.41.39c.09,1.95.09,4.13,0,6.66a.42.42,0,0,1-.41.4C27.65,53.83,26,53.85,24.37,53.85ZM19.89,53c1.48,0,3,.06,4.48.06s3,0,4.47-.06c.08-2.18.08-4.09,0-5.81-1.48,0-3-.06-4.48-.06s-3,0-4.48.06C19.8,48.86,19.8,50.77,19.89,53Z" transform="translate(-0.92 -10.87)"/><rect class="cls-15" x="20.49" y="36.63" width="5.92" height="4.39"/><path class="cls-49" d="M29.46,46.72a.23.23,0,0,0-.21-.2c-1.54,0-3.09-.07-4.64-.07L25.93,45h0a.34.34,0,1,0-.34-.34v.06L24,46.45h0L21.41,44v0a.34.34,0,0,0-.34-.34.34.34,0,1,0,0,.67h.05l2.29,2.12c-1.31,0-2.63,0-3.94.07a.22.22,0,0,0-.2.2,61.19,61.19,0,0,0,0,6.65.22.22,0,0,0,.2.2c1.62,0,3.26.07,4.89.07s3.26,0,4.88-.07a.23.23,0,0,0,.21-.21C29.55,50.84,29.55,48.66,29.46,46.72Zm-.41,6.43c-3.11.1-6.25.1-9.36,0-.1-2.35-.1-4.38,0-6.21,3.1-.1,6.25-.1,9.36,0C29.13,48.77,29.13,50.8,29.05,53.15Z" transform="translate(-0.92 -10.87)"/><path class="cls-50" d="M29.05,46.94c-3.11-.1-6.26-.1-9.36,0-.1,1.83-.1,3.86,0,6.21,3.11.1,6.25.1,9.36,0C29.13,50.8,29.13,48.77,29.05,46.94Zm-8.22,4.4h-.72a.21.21,0,0,1-.21-.21.21.21,0,0,1,.21-.21h.72a.21.21,0,0,1,.21.21A.22.22,0,0,1,20.83,51.34Zm0-.68h-.72a.21.21,0,0,1,0-.42h.72a.21.21,0,0,1,0,.42Zm0-.68h-.72a.21.21,0,0,1-.21-.21.21.21,0,0,1,.21-.21h.72a.22.22,0,0,1,.21.21A.21.21,0,0,1,20.83,50Zm0-.67h-.72a.21.21,0,0,1-.21-.21.21.21,0,0,1,.21-.21h.72a.21.21,0,0,1,.21.21A.22.22,0,0,1,20.83,49.31Zm0-.68h-.72a.21.21,0,0,1-.21-.21.21.21,0,0,1,.21-.21h.72a.22.22,0,0,1,.21.21A.21.21,0,0,1,20.83,48.63Zm1.9,4.29a.3.3,0,1,1,0-.59.3.3,0,0,1,0,.59Zm1-.28v.12h0l0,0h-.26l0,0h0l0,0v-.22h0l0,0v0a.25.25,0,0,1,.17-.06h.13v0h0v.12Zm.82,0v.12h0l0,0h-.26l0,0h0l0,0v-.22h0l0,0v0h.3v0h0v.12Zm.82,0v.12h0l0,0h-.26l0,0h0l0,0v-.22h0l0,0v0h.3v0h0v.12Zm.82,0v.12h0l0,0h-.26l0,0h0l0,0v-.22h0l0,0v0h.3v0h0v.12Zm1.28-.77a.21.21,0,0,1-.2.2c-1,0-1.95.08-2.93.08s-2,0-2.93-.08a.21.21,0,0,1-.2-.2,34.42,34.42,0,0,1,0-4.31.22.22,0,0,1,.2-.2,57.27,57.27,0,0,1,5.86,0,.22.22,0,0,1,.2.2A38.73,38.73,0,0,1,27.5,51.87Zm1.12-.53H27.9a.22.22,0,0,1-.21-.21.21.21,0,0,1,.21-.21h.72a.21.21,0,0,1,.21.21A.21.21,0,0,1,28.62,51.34Zm0-.68H27.9a.21.21,0,0,1,0-.42h.72a.21.21,0,0,1,0,.42Zm0-.68H27.9a.21.21,0,0,1-.21-.21.22.22,0,0,1,.21-.21h.72a.21.21,0,0,1,.21.21A.21.21,0,0,1,28.62,50Zm0-.67H27.9a.22.22,0,0,1-.21-.21.21.21,0,0,1,.21-.21h.72a.21.21,0,0,1,.21.21A.21.21,0,0,1,28.62,49.31Zm0-.68H27.9a.21.21,0,0,1-.21-.21.22.22,0,0,1,.21-.21h.72a.21.21,0,0,1,.21.21A.21.21,0,0,1,28.62,48.63Z" transform="translate(-0.92 -10.87)"/><path class="cls-49" d="M27.5,47.56a.22.22,0,0,0-.2-.2,57.27,57.27,0,0,0-5.86,0,.22.22,0,0,0-.2.2,34.42,34.42,0,0,0,0,4.31.21.21,0,0,0,.2.2c1,0,1.95.08,2.93.08s2,0,2.93-.08a.21.21,0,0,0,.2-.2A38.73,38.73,0,0,0,27.5,47.56Zm-.41,4.1c-1.81.09-3.64.09-5.44,0a36,36,0,0,1,0-3.89c1.81-.09,3.64-.09,5.44,0A36.06,36.06,0,0,1,27.09,51.66Z" transform="translate(-0.92 -10.87)"/><path class="cls-49" d="M21,48.42a.21.21,0,0,1-.21.21h-.72a.21.21,0,0,1-.21-.21.21.21,0,0,1,.21-.21h.72A.22.22,0,0,1,21,48.42Z" transform="translate(-0.92 -10.87)"/><path class="cls-49" d="M21,49.1a.22.22,0,0,1-.21.21h-.72a.21.21,0,0,1-.21-.21.21.21,0,0,1,.21-.21h.72A.21.21,0,0,1,21,49.1Z" transform="translate(-0.92 -10.87)"/><path class="cls-49" d="M21,49.77a.21.21,0,0,1-.21.21h-.72a.21.21,0,0,1-.21-.21.21.21,0,0,1,.21-.21h.72A.22.22,0,0,1,21,49.77Z" transform="translate(-0.92 -10.87)"/><path class="cls-49" d="M21,50.45a.21.21,0,0,1-.21.21h-.72a.21.21,0,0,1,0-.42h.72A.21.21,0,0,1,21,50.45Z" transform="translate(-0.92 -10.87)"/><path class="cls-49" d="M21,51.13a.22.22,0,0,1-.21.21h-.72a.21.21,0,0,1-.21-.21.21.21,0,0,1,.21-.21h.72A.21.21,0,0,1,21,51.13Z" transform="translate(-0.92 -10.87)"/><path class="cls-49" d="M28.83,48.42a.21.21,0,0,1-.21.21H27.9a.21.21,0,0,1-.21-.21.22.22,0,0,1,.21-.21h.72A.21.21,0,0,1,28.83,48.42Z" transform="translate(-0.92 -10.87)"/><path class="cls-49" d="M28.83,49.1a.21.21,0,0,1-.21.21H27.9a.22.22,0,0,1-.21-.21.21.21,0,0,1,.21-.21h.72A.21.21,0,0,1,28.83,49.1Z" transform="translate(-0.92 -10.87)"/><path class="cls-49" d="M28.83,49.77a.21.21,0,0,1-.21.21H27.9a.21.21,0,0,1-.21-.21.22.22,0,0,1,.21-.21h.72A.21.21,0,0,1,28.83,49.77Z" transform="translate(-0.92 -10.87)"/><path class="cls-49" d="M28.83,50.45a.21.21,0,0,1-.21.21H27.9a.21.21,0,0,1,0-.42h.72A.21.21,0,0,1,28.83,50.45Z" transform="translate(-0.92 -10.87)"/><path class="cls-49" d="M28.83,51.13a.21.21,0,0,1-.21.21H27.9a.22.22,0,0,1-.21-.21.21.21,0,0,1,.21-.21h.72A.21.21,0,0,1,28.83,51.13Z" transform="translate(-0.92 -10.87)"/><path class="cls-49" d="M26.22,52.62v.14h0l0,0h-.26l0,0h0l0,0v-.22h0l0,0v0h.3v0h0v.1Z" transform="translate(-0.92 -10.87)"/><path class="cls-49" d="M25.4,52.62v.14h0l0,0h-.26l0,0h0l0,0v-.22h0l0,0v0h.3v0h0v.1Z" transform="translate(-0.92 -10.87)"/><path class="cls-49" d="M24.58,52.62v.14h0l0,0h-.26l0,0h0l0,0v-.22h0l0,0v0h.3v0h0v.1Z" transform="translate(-0.92 -10.87)"/><path class="cls-49" d="M23.76,52.62v.14h0l0,0h-.26l0,0h0l0,0v-.22h0l0,0v0a.25.25,0,0,1,.17-.06h.13v0h0v.1Z" transform="translate(-0.92 -10.87)"/><path class="cls-49" d="M23,52.62a.29.29,0,0,1-.29.3.3.3,0,1,1,0-.59A.29.29,0,0,1,23,52.62Z" transform="translate(-0.92 -10.87)"/><path class="cls-49" d="M22.25,49.33a.24.24,0,0,0,.15-.06l.69-.7a.2.2,0,0,0,0-.3.21.21,0,0,0-.29,0l-.7.7a.22.22,0,0,0,0,.3A.2.2,0,0,0,22.25,49.33Z" transform="translate(-0.92 -10.87)"/><path class="cls-49" d="M23.89,48.27,22.12,50a.22.22,0,0,0,0,.3.22.22,0,0,0,.15.06.2.2,0,0,0,.15-.06l1.76-1.77a.2.2,0,0,0,0-.3A.21.21,0,0,0,23.89,48.27Z" transform="translate(-0.92 -10.87)"/><path class="cls-51" d="M117.41,25a2.79,2.79,0,0,0-.4.13,4.48,4.48,0,0,0-1,.41c-.16.14.07.15.48,0,.24-.1.44-.11.45-.08s-.14.13-.32.21a19.48,19.48,0,0,0-2.7,1s.06.93.17,2,.23,2.78.33,3.8.2,2.22.25,2.71.23,2.52.36,4.49.35,3.86.38,4.16.08,1.15.16,1.93a6.39,6.39,0,0,1,0,2.52c0,.24-.3.4-.25.19s0-.11,0,0-.29.2-.4,0,0-.09-.09,0,0,.08-.14,0-.14-.07-.36,0a4.57,4.57,0,0,1-1.93.19,2.33,2.33,0,0,1-.47-1.43c-.13-1.11-.41-4.82-.68-8.49-.06-1.13-.14-2.18-.14-2.31-.11-.74-.57-7.32-.62-8.24,0-.24,0-.24-.24-.15s-3,1.26-4.41,1.82l-1.55.64c-.21.11-.27,0-.09-.22s.08-.08,0,0-.18.07-.21-.05a.44.44,0,0,1,0-.28c.08-.08.08-.12,0,0s-.16,0-.2-.12a1,1,0,0,0-.22-.38,7.44,7.44,0,0,1-1-1.41c0-.19.28-.5.69-.73.78-.39,4.48-2,5.65-2.41.15,0,.79-.33,1.47-.55s1.39-.5,1.59-.62a6.82,6.82,0,0,0,1-.37l3.44-1.12c.6-.14.79-.19.81-.12s0,.09.09,0,.14-.11.21-.12.41.2.45.36,0,.09.06.09.11.2.18.49.13.54,0,.43-.78.09-.81.23,0,.09.08.08a.1.1,0,0,1,.12.07c0,.1-.07.15-.29.2a.8.8,0,0,0-.36.16.5.5,0,0,1-.24,0,.76.76,0,0,0-.33.14.41.41,0,0,1-.29.17.22.22,0,0,0-.22.09s-.08.08-.09.05-.13,0-.21.08-.18.08-.19.05-.08-.05-.13,0a.55.55,0,0,1-.31.07c-.25,0-.28,0-.31.11s0,.13.12.07.08-.05.1,0-.11.13-.35.08a.28.28,0,0,0-.24.13.25.25,0,0,1-.17.11.14.14,0,0,0-.16,0c-.17.14.13.14.46,0s.38-.09.4,0,0,0,0,0,.17-.14.41-.13.31-.08.36-.15.07-.12.14-.14.13,0,0,.09-.08.09.11,0,.22-.05.21-.11.09-.06.21-.09a1.35,1.35,0,0,1,.29,0s.05.05,0,.13,0,.14.06.12a.13.13,0,0,0,.1-.16c0-.09.07-.15.22-.19s.23,0,.22.09.07.12.16.09S117.57,25,117.41,25Zm-4.1,9.2c-.08-.08-.08,0,0,0s0,.13,0,.09A.15.15,0,0,0,113.31,34.23Zm.06.65c-.05-.05-.08-.05-.06,0s.06.12.09.08S113.41,34.91,113.37,34.88Zm.47,5.07c-.13-.1-.15,0-.07.28s.07.32.08.19a2.17,2.17,0,0,1,0-.25A.27.27,0,0,0,113.84,40Zm.73-13.81s-.1,0-.16,0,0,.07.08.05S114.61,26.17,114.57,26.14Zm.28-.1s-.09-.08-.12-.07-.08.09-.07.12a.09.09,0,0,0,.11.07A.11.11,0,0,0,114.85,26Zm.13-.13a.14.14,0,0,0-.07.12.09.09,0,0,0,.09.08.2.2,0,0,0,.1-.13S115.08,25.89,115,25.91Zm.72-.24c-.25,0-.49.08-.46.21s0,.13.3,0S115.83,25.67,115.7,25.67Zm0-1.38c0,.06.08.08.1,0a1.83,1.83,0,0,1,.45-.2,3,3,0,0,1,.57-.14c.15.06.31-.11.27-.27s-.24,0-1.15.38C115.74,24.16,115.69,24.24,115.74,24.29Zm.4.88a.11.11,0,0,0,0-.09s-.06.05-.07.12,0,.07,0,.05S116.15,25.2,116.14,25.17Zm.84-.27a.34.34,0,0,0-.19.05s0,.06.08,0S117,24.93,117,24.9Zm.28.47c0,.06,0,.11-.14.13s-.13,0-.14-.06a.26.26,0,0,1,.14-.1C117.18,25.32,117.25,25.34,117.26,25.37Zm.23-.72c-.16,0-.32.07-.29,0s.6-.28.62-.18S117.68,24.6,117.49,24.65Zm.37-1c.07,0,.11,0,0,.05a1,1,0,0,0-.2.12c-.06,0-.13,0-.14,0S117.68,23.6,117.86,23.66Zm.59,1c.11,0,.11,0-.39.19-.24.09-.42.07-.39,0a.25.25,0,0,1,.17-.14c.12-.06.16-.14.15-.21s0-.14.16-.17.23,0,.22.08S118.41,24.56,118.45,24.62Zm.55-.1s0,0-.06.05a.14.14,0,0,1-.11,0c0-.07,0-.07.08-.09S119,24.49,119,24.52Z" transform="translate(-0.92 -10.87)"/><path class="cls-51" d="M129.77,18c0,.11,0,.15-.06.15s-.07,0-.1-.11-.08-.08-.2.28-.15.34-.26.3-.15-.06,0,0,.14.3,0,.64a.44.44,0,0,0-.13.3c.05.05,0,.09,0,.14s-.08.12,0,.24c.18.33.2.39,0,.41s-.16,0,0,.14.17.13.07.29a.48.48,0,0,0-.09.32c0,.16-.12.5-.19.45s0-.1,0-.17.07-.25-.05-.22-.05.08,0,.14,0,.14-.06.15,0,.31.11.31.11,0,0,.16-.07.12-.1,0-.1-.14-.14-.17-.09,0,0,.14,0,.22,0,.23-.07.15,0,.28.1.24,0,.29,0,.31.1.28.12-.06.06-.15,0-.17.08-.25.26-.17.14,0a.19.19,0,0,0,0,.23s0,.07-.07.12a.25.25,0,0,0-.05.21c0,.09,0,.13-.13,0s-.15-.07,0,.1.14.17.06.22-.08.12-.06.18,0,.11,0,.11,0,.08,0,.15,0,.12,0,.14-.09.05-.08.08,0,.1,0,.1,0,.08.06.12a.82.82,0,0,1,.18.2c-.05,0-.05,0-.07,0a.1.1,0,0,0-.12-.07s0,.11,0,.2,0,.23-.05.25-.09.29-.08.48a.66.66,0,0,1-.13.3c-.08.09-.12.2-.08.22s0,.13,0,.2,0,.11,0,.16.05.08,0,.15,0,0,.08-.05.11-.09.13,0,.05.06.1,0,0-.11,0-.1,0-.14,0-.25.07-.15,0-.1,0,0,0-.05,0-.15.07-.12.15-.21.06-.32,0-.06.05-.08.11-.09,0-.24-.07-.15,0-.13.08.05.16,0l.09-.19c0-.07.05-.21.09-.32l.1-.26.05.19c0,.09.07.18.1.17s.08-.08,0-.14a1,1,0,0,0-.19-.22c0-.09,0-.1.15-.1s.19,0,0-.08-.15-.1-.09-.25a.67.67,0,0,0,.06-.31c0-.07,0-.17.05-.21s.2,0,.13.1,0,.24.05.22.11-.09.06-.15a.16.16,0,0,1,.09-.19c.09-.05.13,0,.13.11a1.14,1.14,0,0,1-.09.19,6.33,6.33,0,0,0-.23,1.15c0,.07,0,.07-.08.09s-.13,0-.1.15a1.15,1.15,0,0,1,0,.37c0,.07,0,.13,0,.06a.58.58,0,0,1,.23,0c.08.05.1.14,0,.58-.1.29-.19.61-.22.75s-.31,1.38-.64,2.82-.71,3.21-.88,3.89c-.2,1-.3,1.27-.43,1.3s-.12,0,0,.08.11.17-.07,1c-.13.57-.43,2-.67,3.1s-.52,2.43-.63,2.82a3.55,3.55,0,0,0-.13.74,2.69,2.69,0,0,1-.07.55,7,7,0,0,0-.13.7c0,.27,0,.27-.16.2s-.12-.1-.15,0-.08.12-.26,0-.23-.12-.21,0-.07.12-.3.14a1.21,1.21,0,0,0-.43.17s-.37.12-.78.21c-.72.21-.72.21-.89,0a.91.91,0,0,1-.14-.57,3.84,3.84,0,0,0-.19-1.09c-.08-.35-.55-1.88-1-3.38-1.25-4.42-2.12-7.25-2.66-8.83-.07-.15-.32-.79-.53-1.38s-.42-1.2-.49-1.35-.17-.46-.23-.68-.18-.49-.22-.65-.3-.7-.49-1.22-.54-1.44-.78-2-.44-1.17-.49-1.36l-.08-.34.61-.12a3,3,0,0,1,.91,0c.27,0,.33,0,.32,0s.1-.16.21-.08.17.12.27.13.22.08.17-.11,0-.14.26-.19a1.32,1.32,0,0,1,.4,0,.47.47,0,0,0,.28,0c.12,0,.19.09.52.81.21.45.56,1.21.74,1.7s.43,1.1.52,1.34c1,2.47,2.45,6.51,3.26,9.22l.24.75a1,1,0,0,0,.1-.29c0-.14.27-1.13.51-2.23s.43-2,.42-2,.9-3.69,1.07-4.37c.14-.43.27-.86.3-1s.09-.33.15-.51a2.29,2.29,0,0,0,.11-.49c0-.15.08-.26.14-.27s0-.11.05-.21,0-.21.08-.22.06-.05.09-.19,0-.27.07-.28,0-.08,0-.14,0-.14.07-.15.07-.12.09-.19a.92.92,0,0,1,.13-.43.63.63,0,0,0,.13-.3c0-.07-.05-.06-.07,0s-.07.12-.08.06.26-.6.33-.55a4,4,0,0,0,.14-.84.18.18,0,0,1,.09-.18c0-.08.07-.12,0-.11s0-.11.07-.26a2.71,2.71,0,0,0,.13-.33c0-.06,0-.17.09-.18a4.59,4.59,0,0,0,.39-1.17c0-.27.18-.48.34-.38s.1,0,0-.14-.06-.15.14-.13c.5,0,.57,0,.61.15s.06.12.09.12S129.79,17.88,129.77,18Zm-11.22,5.81c-.07,0-.14,0-.13,0s.17.16.19.09A.28.28,0,0,0,118.55,23.76Zm.72,1.77s0-.07,0-.06,0,.05-.08.09,0,.09.09.08S119.28,25.59,119.27,25.53Zm.41-1.1s.08.08.11.07.07,0,.06-.05,0-.05-.09-.08S119.67,24.4,119.68,24.43Zm1.45,6.14s-.08-.05-.17,0-.12.06-.11.09S121.15,30.63,121.13,30.57Zm.32.79c0-.09-.1-.18-.14-.17a1.16,1.16,0,0,0,0,.2c0,.12.07.18.11.17S121.48,31.48,121.45,31.36Zm.12.61s.06,0,0-.08a.15.15,0,0,0-.09-.11s-.09,0-.08.08A.12.12,0,0,0,121.57,32Zm.14.46c0,.16.05.23.07.15s0-.22-.07-.28S121.68,32.31,121.71,32.43Zm.58,2c.25.94.27,1,.24.74,0-.1-.15-.63-.28-1.17s-.29-.93-.34-.86a1.23,1.23,0,0,0,.06.36C122,33.63,122.17,34.1,122.29,34.44Zm.5,1c-.11,0-.25.09-.16.17s0,.1,0,.14,0,.1.06.22a6.26,6.26,0,0,1,.29.93c.13.44.21.75.27.74s0-.14,0-.26a8.67,8.67,0,0,1-.43-1.81A.33.33,0,0,0,122.79,35.42Zm0-2.9c0-.07-.07-.15-.1-.15s0,.11,0,.17.1.14.1.14S122.8,32.64,122.77,32.52Zm.45,5.3c-.08,0-.17.11-.13.27s0,.09.11-.06S123.25,37.82,123.22,37.82Zm.33-2.71a.07.07,0,0,0-.08,0s-.09,0-.08.08.08.08.12.08S123.56,35.17,123.55,35.11Zm.06.25c0-.06,0,0,0,.17s.06.22.06.11S123.63,35.45,123.61,35.36Zm3.94-6.78a.33.33,0,0,0-.06.31c0,.26.12.1.14-.23C127.63,28.49,127.59,28.47,127.55,28.58Zm.26-.7c0-.07-.07,0-.11.09a1.48,1.48,0,0,0,0,.24s.07,0,.08-.08A.79.79,0,0,0,127.81,27.88Zm.08-1.22a.24.24,0,0,0-.13.16.27.27,0,0,0,.23,0c.07,0,.16,0,.18,0s0,.06.06,0a.14.14,0,0,0,.06-.15s-.07-.05-.1,0-.05.05-.07,0S128,26.63,127.89,26.66Zm.25.34c0-.06-.11,0-.17,0s-.12.23,0,.2.08,0,.08.18,0,.17.06,0S128.19,27.05,128.14,27Zm.23-3.4a.15.15,0,0,0-.16,0c-.05.05,0,0,.07,0S128.41,23.63,128.37,23.6Zm0-.24a.06.06,0,0,0-.08-.05c-.06,0-.05.05,0,.08s.08.08.11.07S128.43,23.42,128.41,23.36Zm.33,3.9c.08-.09.19-.18.17-.24s-.11-.05-.19.17S128.57,27.4,128.74,27.26Zm-.1.45c.09.08.11,0,.1-.15s0-.13-.08,0A.3.3,0,0,0,128.64,27.71Zm.19-5.69c.06,0,.1,0,.08.05s0,.08-.11.09-.07,0-.08-.05S128.77,22,128.83,22Zm-.06-1.39c-.06.05,0,.07.08.05a.09.09,0,0,0,.08-.09C128.86,20.61,128.82,20.59,128.77,20.63Zm.29,5.75c.07,0,.15-.07.15-.1s-.24,0-.29.06S129,26.43,129.06,26.38Zm0-.3c.18.06.21.05.19,0a.15.15,0,0,0-.18-.05C128.94,26,129,26,129.06,26.08Zm.1-.29c.1.14.18.09.12-.17,0-.09-.06-.15-.1-.14S129.1,25.67,129.16,25.79Zm.1-6.31c-.09,0-.09,0,0-.09s.06-.18,0-.17,0-.06,0-.08S129.38,19.39,129.26,19.48Zm.05,4.43a.46.46,0,0,0,.13-.16c0-.06,0-.13-.08-.08a.41.41,0,0,0-.13.19A0,0,0,0,0,129.31,23.91Zm.39.95s0,.07-.1.12-.13,0-.13,0,0-.11.1-.13A.35.35,0,0,1,129.7,24.86Zm-.14-2s.08,0,.06.12,0,.11-.07.12a.15.15,0,0,1-.05-.09A.14.14,0,0,1,129.56,22.85Zm.19,1.76c0,.1,0,.1,0,.11s0,0-.12-.07-.13-.11,0-.14S129.76,24.54,129.75,24.61Zm.47-3.65a.48.48,0,0,1,.07.15c0,.11-.12.09-.15,0A.09.09,0,0,1,130.22,21Z" transform="translate(-0.92 -10.87)"/><path class="cls-50" d="M116.27,24.46l-.41.13a4.41,4.41,0,0,0-1,.42c-.17.14.07.15.47,0s.44-.11.45-.08-.14.14-.32.21a19.3,19.3,0,0,0-2.69,1,19,19,0,0,0,.16,2c.09,1.08.23,2.79.34,3.8s.19,2.22.24,2.71.23,2.52.36,4.5.35,3.86.39,4.15.07,1.15.16,1.93a6.62,6.62,0,0,1,0,2.52c0,.24-.31.4-.26.19s0-.11,0,0-.28.2-.39,0-.06-.09-.1,0,0,.08-.13,0-.15-.07-.36,0a4.59,4.59,0,0,1-1.93.19,2.26,2.26,0,0,1-.47-1.43c-.13-1.1-.41-4.81-.68-8.49-.07-1.12-.15-2.17-.15-2.31-.11-.74-.56-7.32-.62-8.24,0-.24,0-.24-.23-.14-.39.19-3,1.25-4.42,1.81l-1.55.64c-.21.11-.27,0-.08-.22s.08-.08,0,0-.19.08-.22-.05a.39.39,0,0,1,0-.28c.08-.08.07-.11,0,0s-.16,0-.2-.12a.85.85,0,0,0-.22-.38,7.94,7.94,0,0,1-1-1.41c0-.19.28-.5.7-.73.77-.39,4.48-2,5.64-2.41.16,0,.79-.32,1.47-.55s1.39-.5,1.6-.61a6.9,6.9,0,0,0,1-.38l3.45-1.12c.6-.14.79-.18.8-.12s.06.09.1,0,.14-.1.2-.12.42.2.46.36,0,.1,0,.09a1.07,1.07,0,0,1,.18.49c.14.44.13.54,0,.43s-.79.09-.82.23,0,.1.09.08a.1.1,0,0,1,.11.07c0,.1-.06.15-.28.2a.93.93,0,0,0-.37.16.31.31,0,0,1-.23,0,.79.79,0,0,0-.34.14.41.41,0,0,1-.29.17.2.2,0,0,0-.21.09c-.06,0-.08.08-.09.05s-.14,0-.22.09-.18.07-.19,0-.07-.05-.12,0a.72.72,0,0,1-.32.08c-.24,0-.27,0-.31.1s0,.13.12.07.09-.05.1,0-.1.13-.35.09a.23.23,0,0,0-.23.12.25.25,0,0,1-.18.11s-.1,0-.16,0,.14.13.47,0,.38-.09.39,0,0,0,0,0,.17-.14.4-.13.32-.07.37-.15.07-.12.13-.14.14,0,.06.09-.08.09.11,0,.22-.05.2-.11.09-.06.22-.09a1.3,1.3,0,0,1,.29,0s.05.05,0,.13,0,.14.06.12a.15.15,0,0,0,.1-.16c0-.09.06-.15.22-.18s.23,0,.22.08.06.12.15.09S116.42,24.39,116.27,24.46Zm-4.1,9.2c-.09-.08-.08,0-.06,0s0,.13.06.09A.19.19,0,0,0,112.17,33.66Zm0,.65c0-.05-.08-.05,0,0s.06.12.08.08S112.26,34.34,112.22,34.31Zm.47,5.07c-.12-.1-.14,0-.07.29s.08.31.08.18a2.17,2.17,0,0,0,0-.25A.27.27,0,0,0,112.69,39.38Zm.73-13.81s-.1,0-.15,0,0,.07.07.05S113.46,25.6,113.42,25.57Zm.28-.1a.14.14,0,0,0-.12-.07s-.08.09-.07.12a.11.11,0,0,0,.12.07A.1.1,0,0,0,113.7,25.47Zm.14-.13a.2.2,0,0,0-.08.12c0,.06.06.09.09.08a.18.18,0,0,0,.1-.13S113.93,25.32,113.84,25.34Zm.71-.24c-.24,0-.48.09-.45.21s0,.13.29,0S114.68,25.11,114.55,25.1Zm0-1.37c0,.05.09.07.1,0a2.72,2.72,0,0,1,.45-.2,4.16,4.16,0,0,1,.57-.14c.15.07.31-.11.28-.26s-.24,0-1.15.37C114.59,23.59,114.54,23.67,114.59,23.73Zm.41.87a.14.14,0,0,0-.06-.09s0,0-.07.12,0,.07,0,.05S115,24.63,115,24.6Zm.84-.27c-.07,0-.14,0-.19.05s0,.06.08,0S115.84,24.36,115.84,24.33Zm.28.47c0,.06-.05.11-.14.13s-.13,0-.15-.06a.26.26,0,0,1,.14-.1C116,24.75,116.11,24.77,116.12,24.8Zm.22-.72c-.15,0-.31.07-.29,0s.6-.27.63-.18S116.53,24,116.34,24.08Zm.37-1c.07,0,.11,0,.05.05l-.21.12s-.13,0-.13,0S116.53,23,116.71,23.09Zm.6,1c.11,0,.11,0-.39.19-.25.09-.42.07-.4,0a.31.31,0,0,1,.17-.14c.12-.06.17-.14.15-.2s0-.15.16-.18.24,0,.22.09A.3.3,0,0,0,117.31,24.05Zm.54-.1s0,0,0,.05a.1.1,0,0,1-.11,0c0-.06,0-.07.08-.09S117.84,23.92,117.85,24Z" transform="translate(-0.92 -10.87)"/><path class="cls-50" d="M128.63,17.39c0,.1,0,.14-.07.15s-.07,0-.09-.12c.07-.25-.09-.08-.2.29s-.16.33-.27.29-.15-.06,0,0,.14.3,0,.64a.6.6,0,0,0-.13.3c0,.05,0,.09,0,.14s-.07.12,0,.24c.18.33.19.39,0,.41s-.16,0,0,.15.16.12.07.28a.39.39,0,0,0-.09.32c0,.16-.12.5-.2.45s0-.1,0-.17.08-.25,0-.22,0,.08,0,.14,0,.14-.07.15,0,.31.11.31.11,0,0,.16-.07.12-.1,0a.61.61,0,0,0-.14-.17c-.07,0-.1,0,0,.14s.06.22,0,.23-.06.15,0,.28.09.25,0,.29,0,.31.1.28.12-.06.07-.15,0-.17.07-.25.26-.16.14,0a.21.21,0,0,0,0,.23s0,.07-.08.12a.31.31,0,0,0,0,.21c0,.1,0,.13-.12,0s-.15-.06,0,.1.14.17.05.22a.35.35,0,0,0-.06.18c0,.07,0,.11,0,.12s0,.07,0,.14,0,.12,0,.14-.09.05-.08.08,0,.1,0,.11,0,.07.06.12a1,1,0,0,1,.18.19c-.06,0-.06,0-.07,0a.11.11,0,0,0-.12-.07s0,.11,0,.2,0,.23,0,.25-.1.29-.09.49,0,.18-.13.29-.12.2-.08.22,0,.13,0,.2,0,.11,0,.16a.14.14,0,0,1,0,.16s0,0,.09-.06.11-.09.12,0,0,.06.11,0,0-.11,0-.1,0-.13,0-.25.06-.14,0-.1-.06,0,0-.05,0-.14.07-.12.16-.2.06-.32,0-.06,0-.07.11-.1,0-.25-.07-.15,0-.12.08,0,.16,0a1.2,1.2,0,0,0,.09-.19,1.05,1.05,0,0,1,.09-.32l.11-.26,0,.19c0,.09.08.18.11.17s.08-.08,0-.14a1.16,1.16,0,0,0-.18-.22c-.06-.09,0-.1.14-.1s.2,0,.05-.08-.16-.1-.09-.25a.64.64,0,0,0,.05-.31.23.23,0,0,1,.06-.21c.07-.09.19,0,.12.1s0,.25.05.22.11-.09.07-.15a.13.13,0,0,1,.09-.18c.08-.06.12,0,.12.1a.67.67,0,0,1-.09.19,5.69,5.69,0,0,0-.22,1.15c0,.07,0,.07-.08.09s-.13,0-.1.16a1.43,1.43,0,0,1,0,.36c0,.07,0,.13,0,.06a.6.6,0,0,1,.23,0c.08.05.1.14,0,.58-.1.29-.19.61-.22.75s-.31,1.38-.63,2.83-.71,3.21-.89,3.88c-.2,1-.3,1.28-.42,1.31s-.13,0,0,.07.11.17-.07,1c-.13.57-.43,2-.66,3.1s-.53,2.43-.64,2.83a3.21,3.21,0,0,0-.12.73,3.73,3.73,0,0,1-.07.55c0,.21-.11.53-.14.7s0,.27-.15.2-.13-.1-.16,0-.07.12-.26,0-.23-.12-.2,0-.08.12-.31.14a1.07,1.07,0,0,0-.42.17s-.38.12-.79.22c-.72.2-.72.2-.89,0a.86.86,0,0,1-.13-.57,3.9,3.9,0,0,0-.2-1.09c-.08-.35-.54-1.88-1-3.38-1.24-4.42-2.12-7.25-2.66-8.83-.07-.15-.32-.79-.53-1.37s-.41-1.21-.48-1.36-.18-.46-.23-.68a3.84,3.84,0,0,1-.22-.65c-.07-.12-.3-.7-.49-1.22s-.55-1.44-.78-2-.45-1.17-.49-1.36L114,21l.61-.11a2.69,2.69,0,0,1,.91,0c.28,0,.34,0,.32,0s.1-.16.22-.08.16.12.26.13.22.09.18-.1,0-.15.25-.2a1.09,1.09,0,0,1,.41,0,.43.43,0,0,0,.27,0c.13,0,.19.09.53.81.21.45.55,1.21.74,1.7s.42,1.1.52,1.35c1,2.46,2.44,6.5,3.25,9.22.13.4.25.74.25.74a.82.82,0,0,0,.09-.29c0-.14.27-1.13.51-2.23s.44-2,.43-2,.9-3.69,1.07-4.37c.13-.43.26-.86.29-1a4.73,4.73,0,0,0,.15-.51,3.17,3.17,0,0,0,.12-.49c0-.14.07-.25.14-.27s0-.11.05-.21,0-.21.08-.22,0-.05.09-.19,0-.27.06-.28,0-.08,0-.14,0-.14.06-.15.07-.12.09-.19a1.24,1.24,0,0,1,.13-.43.47.47,0,0,0,.13-.3c0-.06,0-.06-.06,0s-.07.12-.09.06.26-.6.34-.55a3.57,3.57,0,0,0,.13-.83.23.23,0,0,1,.09-.19c.05-.08.08-.12,0-.11s0-.11.08-.25.12-.33.12-.33,0-.18.09-.19a3.93,3.93,0,0,0,.39-1.17c0-.27.19-.47.35-.38s.09,0,0-.14-.07-.15.14-.13c.49,0,.56,0,.6.16s.06.11.09.11S128.64,17.32,128.63,17.39Zm-11.23,5.8c-.07,0-.14,0-.12,0s.17.16.18.09A.28.28,0,0,0,117.4,23.19Zm.72,1.77s0-.06,0-.06S118,25,118,25s0,.09.08.08A.08.08,0,0,0,118.12,25Zm.41-1.1s.09.08.12.07.06,0,0,0,0-.06-.08-.09S118.52,23.83,118.53,23.86ZM120,30s-.08-.05-.18,0-.11.06-.11.1S120,30.06,120,30Zm.32.79c0-.09-.11-.18-.14-.17a.77.77,0,0,0,0,.2c0,.13.08.18.11.17S120.34,30.92,120.31,30.79Zm.11.61s.06,0,0-.08a.21.21,0,0,0-.09-.11s-.1,0-.08.08S120.39,31.41,120.42,31.4Zm.14.47c0,.15.06.22.07.15s0-.22-.06-.29S120.53,31.74,120.56,31.87Zm.58,2c.26.94.27,1,.24.74,0-.1-.15-.63-.27-1.17s-.29-.93-.34-.85a1.14,1.14,0,0,0,0,.35C120.88,33.06,121,33.53,121.14,33.87Zm.5,1c-.11,0-.24.09-.16.17a.22.22,0,0,1,0,.14s0,.1,0,.22a6.26,6.26,0,0,1,.29.93c.14.44.21.76.28.74s0-.14,0-.26a8.62,8.62,0,0,1-.43-1.8A.29.29,0,0,0,121.64,34.85Zm0-2.9c0-.06-.07-.15-.1-.14s0,.11,0,.16a.46.46,0,0,0,.1.15S121.65,32.08,121.62,32Zm.46,5.3c-.08,0-.18.11-.14.27s0,.09.12-.06S122.11,37.25,122.08,37.25Zm.32-2.71a.07.07,0,0,0-.08,0s-.08,0-.08.08a.11.11,0,0,0,.12.08A.08.08,0,0,0,122.4,34.54Zm.06.25c0-.06,0,0,0,.17s0,.22.06.12S122.48,34.89,122.46,34.79ZM126.4,28a.33.33,0,0,0-.06.31c0,.26.13.11.15-.23C126.48,27.92,126.44,27.9,126.4,28Zm.27-.7c0-.06-.07,0-.11.09a1.57,1.57,0,0,0,0,.25s.08,0,.09-.09A.79.79,0,0,0,126.67,27.31Zm.08-1.22c-.09.05-.14.13-.13.16a.27.27,0,0,0,.23,0c.06,0,.16,0,.17,0s0,0,.06,0a.14.14,0,0,0,.07-.15s-.08-.05-.1,0-.06.05-.07,0S126.87,26.06,126.75,26.09Zm.24.34c0-.06-.1,0-.17,0s-.11.23,0,.2.08,0,.08.18,0,.17.06,0S127,26.49,127,26.43Zm.23-3.4a.14.14,0,0,0-.15,0c-.06.05,0,0,.07,0S127.26,23.06,127.22,23Zm0-.24a.07.07,0,0,0-.08-.05c-.06,0-.06.05,0,.08s.09.08.12.07S127.28,22.85,127.27,22.79Zm.32,3.9c.08-.09.19-.18.18-.24s-.11,0-.19.18S127.42,26.83,127.59,26.69Zm-.09.46c.08.07.11,0,.1-.16s0-.13-.08,0A.27.27,0,0,0,127.5,27.15Zm.19-5.7c.06,0,.1,0,.07.05s0,.08-.11.09-.06,0-.08,0S127.62,21.47,127.69,21.45Zm-.07-1.39c-.05.05,0,.07.08.05s.09-.05.08-.08S127.68,20,127.62,20.06Zm.3,5.75c.06,0,.15-.07.14-.1s-.24,0-.28.07S127.83,25.86,127.92,25.81Zm0-.3c.18.06.22,0,.19-.05s-.08-.08-.18-.05S127.8,25.47,127.91,25.51Zm.1-.29c.1.14.19.09.13-.17,0-.09-.07-.15-.1-.14S128,25.1,128,25.22Zm.11-6.31c-.1,0-.1,0-.06-.09s.06-.18,0-.17,0-.06,0-.08S128.23,18.82,128.12,18.91Zm0,4.43a.91.91,0,0,0,.13-.16c0-.06,0-.13-.09-.08a.37.37,0,0,0-.12.2S128.11,23.39,128.17,23.34Zm.39.95s-.05.08-.11.12-.12,0-.13,0a.11.11,0,0,1,.1-.12A.29.29,0,0,1,128.56,24.29Zm-.14-2s.08,0,.06.12,0,.11-.07.12a.2.2,0,0,1-.06-.09A.17.17,0,0,1,128.42,22.28ZM128.6,24c0,.11,0,.11,0,.11s0,0-.12-.07-.12-.1,0-.14S128.62,24,128.6,24Zm.47-3.65a.33.33,0,0,1,.07.15c0,.11-.11.09-.14,0A.1.1,0,0,1,129.07,20.39Z" transform="translate(-0.92 -10.87)"/><path class="cls-52" d="M52.68,16h5.9q5.25,0,5.25,4.12A4.12,4.12,0,0,1,62,23.49a4,4,0,0,1,2.61,4,4.44,4.44,0,0,1-3.14,4.42,8.4,8.4,0,0,1-2.31.25h-.92V28h.82a2.1,2.1,0,0,0,1-.19.71.71,0,0,0,.29-.65c0-.52-.4-.78-1.21-.78h-.93V22.07c.89,0,1.34-.3,1.34-.92s-.41-.84-1.21-.84h-.89V32.19H52.68Z" transform="translate(-0.92 -10.87)"/><path class="cls-52" d="M78,18.22v8.26a5.71,5.71,0,0,1-6.08,6.11A5.35,5.35,0,0,1,67.71,31a6.73,6.73,0,0,1-1.46-4.65V16h4.83V26.32c0,1,.35,1.48,1.06,1.48s1-.49,1-1.48v-8.1Z" transform="translate(-0.92 -10.87)"/><path class="cls-52" d="M80.59,32.19V21.65a5.73,5.73,0,0,1,6.08-6.1,5.39,5.39,0,0,1,4.21,1.62,6.73,6.73,0,0,1,1.45,4.65V32.19H87.5V21.82c0-1-.35-1.49-1-1.49s-1,.5-1,1.49V32.19Z" transform="translate(-0.92 -10.87)"/><path class="cls-52" d="M75.65,14.17h2.81l-2.81,2.76H73.14Z" transform="translate(-0.92 -10.87)"/><path class="cls-52" d="M64.25,45.72l5.06.13a9.9,9.9,0,0,1-2.72,6.06,8,8,0,0,1-5.78,2.14,8.29,8.29,0,0,1-6.08-2.43,8.2,8.2,0,0,1-2.44-6,8.28,8.28,0,0,1,2.49-6.11A8.41,8.41,0,0,1,60.92,37a8.09,8.09,0,0,1,6,2.43,9.43,9.43,0,0,1,2.35,4.67l-5.17.35c-.58-1.78-1.68-2.67-3.29-2.67a3.37,3.37,0,0,0-2.56,1.07,3.83,3.83,0,0,0-1,2.73,3.66,3.66,0,0,0,1,2.63,3.61,3.61,0,0,0,4.94.12A4.18,4.18,0,0,0,64.25,45.72Z" transform="translate(-0.92 -10.87)"/><path class="cls-52" d="M77.76,43.22V47.5H76.42v6.15H71.59V37.42h4.83v5.8Zm5.65-5.8V53.65H78.58V37.42Z" transform="translate(-0.92 -10.87)"/><path class="cls-52" d="M92.55,45.5v4.28h-1.4v3.87H86.33V43.33A6.36,6.36,0,0,1,88,38.67,6.15,6.15,0,0,1,92.56,37a5.41,5.41,0,0,1,4.22,1.51,6.73,6.73,0,0,1,1.37,4.64V53.65H93.32V43.48a2.75,2.75,0,0,0-.23-1.32.86.86,0,0,0-.81-.37c-.75,0-1.13.56-1.13,1.69v2Z" transform="translate(-0.92 -10.87)"/><path class="cls-52" d="M98.36,36.62h-2.2v-.38a2.75,2.75,0,0,1,.16-1.09,1.19,1.19,0,0,1,.61-.55l.4-.17c.3-.14.46-.33.46-.57a.46.46,0,0,0-.15-.36.49.49,0,0,0-.36-.15c-.39,0-.58.27-.58.8h-2a2.93,2.93,0,0,1,.5-1.76,2.75,2.75,0,0,1,.95-.8,2.8,2.8,0,0,1,1.22-.29,2.54,2.54,0,0,1,1.87.74,2.42,2.42,0,0,1,.76,1.82,1.93,1.93,0,0,1-1.09,1.89,1.11,1.11,0,0,0-.43.31A1.35,1.35,0,0,0,98.36,36.62Z" transform="translate(-0.92 -10.87)"/></svg>